<?xml version="1.0" encoding="utf-8"?>
<!-- Generator: Adobe Illustrator 11.0, SVG Export Plug-In  -->
<!DOCTYPE svg PUBLIC "-//W3C//DTD SVG 1.0//EN"    "http://www.w3.org/TR/2001/REC-SVG-20010904/DTD/svg10.dtd" [
	<!ENTITY ns_flows "http://ns.adobe.com/Flows/1.0/">
	<!ENTITY ns_svg "http://www.w3.org/2000/svg">
	<!ENTITY ns_xlink "http://www.w3.org/1999/xlink">
]>
<svg  xmlns="&ns_svg;" xmlns:xlink="&ns_xlink;" xmlns:a="http://ns.adobe.com/AdobeSVGViewerExtensions/3.0/"
	 width="21" height="31" viewBox="-0.9 -0.7 21 31" xml:space="preserve">
	<defs>
	</defs>
	<g>
		<path d="M9.5,20.5c1.9,0,4.7-1,4.7-1l1.7,10l-6.3-2.7l-6.5,2.8l1.8-10C4.9,19.5,7.6,20.5,9.5,20.5z"/>
		<path d="M13.3,12.2l3.6,3.5c3-3.6,2.9-8.9-0.2-12.4l-3.5,3.7C14.5,8.5,14.5,10.6,13.3,12.2z M12.2,5.8l3.5-3.6
			c-3.7-3-9-2.8-12.5,0.4L6.8,6C8.3,4.7,10.5,4.7,12.2,5.8z M7.1,13.5l-3.5,3.7c3.6,2.9,8.7,2.8,12.2-0.2l-3.7-3.5
			C10.7,14.4,8.7,14.5,7.1,13.5z M5.7,7.2L2,3.7C-0.8,7.3-0.6,12.5,2.5,16l3.5-3.6C4.8,10.8,4.7,8.8,5.7,7.2z"/>
		<circle cx="9.6" cy="9.7" r="3.6"/> 
	</g>
</svg>
