<?xml version="1.0" encoding="utf-8"?>
<!-- Generator: Adobe Illustrator 11.0, SVG Export Plug-In  -->
<!DOCTYPE svg PUBLIC "-//W3C//DTD SVG 1.0//EN"    "http://www.w3.org/TR/2001/REC-SVG-20010904/DTD/svg10.dtd" [
	<!ENTITY ns_flows "http://ns.adobe.com/Flows/1.0/">
	<!ENTITY ns_svg "http://www.w3.org/2000/svg">
	<!ENTITY ns_xlink "http://www.w3.org/1999/xlink">
]>
<svg  xmlns="&ns_svg;" xmlns:xlink="&ns_xlink;" xmlns:a="http://ns.adobe.com/AdobeSVGViewerExtensions/3.0/"
	 width="35" height="23" viewBox="-0.989 -1.72 35 23" xml:space="preserve">
	<defs>
	</defs>
	<g>
		<path fill="#FFFFFF" d="M0.048,18.551c0,0-1.038-7.625,6.49-7.877c0.882-0.945,1.386-3.969,4.789-4.789
			c3.761-0.906,6.427-0.378,8.002,2.521c1.575,2.899,1.261,4.663,1.261,4.663s3.759-0.177,4.726,2.206
			c0.945,2.331,0.567,3.402,0.567,3.402L0.048,18.551z"/>
		<path fill="#FFFFFF" d="M24.624,13.195c0,0-0.946-1.26-2.647-1.26c-0.631-3.655-2.583-8.128-8.254-7.31
			c3.087-0.315-0.121,0.134,0.042-0.165c0.694-1.28,1.548-3.393,4.306-4.057c3.761-0.906,6.427-0.378,8.003,2.521
			c1.574,2.899,1.26,4.663,1.26,4.663s3.76-0.177,4.727,2.206c0.945,2.33,0.566,3.402,0.566,3.402H24.624z"/>
	</g>
</svg>
